<svg xmlns="http://www.w3.org/2000/svg" width="169" height="124.209" viewBox="0 0 169 124.209">
  <g id="Group_1252" data-name="Group 1252" transform="translate(-13229.75 -943.029)">
    <g id="Group_182" data-name="Group 182" transform="translate(13229.75 946.875)">
      <g id="Group_170" data-name="Group 170" transform="translate(0 0)">
        <g id="Group_165" data-name="Group 165" transform="translate(0)">
          <g id="Group_126" data-name="Group 126">
            <g id="side_menu_header" data-name="side menu header" transform="translate(45.368 -1.847)">
              <g id="Group_21" data-name="Group 21">
                <g id="Group_119" data-name="Group 119">
                  <path id="Path_5-2" data-name="Path 5-2" d="M47.7,83.209A38.6,38.6,0,1,1,86.257,44.583,38.726,38.726,0,0,1,47.7,83.209Z" transform="translate(-8.993 -6.001)" fill="#212121" stroke="#212121" stroke-width="4"/>
                </g>
              </g>
              <path id="Path_6" data-name="Path 6" d="M48.194,62.057a3.982,3.982,0,0,1,2.027,1.114Q61.273,71.029,72.3,78.918c1.7,1.213,1.945,1.118,2.189-.962q2.091-17.779,4.153-35.563c.093-.786-.159-2.136.753-2.148,1.118-.012.807,1.371.9,2.174Q82.4,60.2,84.442,77.985c.235,2.011.522,2.132,2.218.924q11.112-7.916,22.216-15.841a3.291,3.291,0,0,1,2.018-.988,6.847,6.847,0,0,1-1.975,2.733Q99.718,74.989,90.5,85.148c-.382.424-1.151.8-.831,1.495.247.538.978.452,1.524.54,5.048.808,10.1,1.6,15.145,2.426.567.093,1.486-.012,1.539.722.064.917-.91.829-1.524.928-5.876.966-11.76,1.895-17.635,2.854-2.006.329-2.077.5-1.182,2.378,1.037,2.177,2.1,4.344,3.115,6.528.218.471.774,1.04.214,1.516-.624.533-1.149-.093-1.617-.45-2.5-1.9-4.988-3.825-7.484-5.739-2.286-1.755-2.289-1.755-4.516-.05-2.538,1.947-5.071,3.9-7.614,5.846-.434.329-.926.855-1.491.446-.627-.457-.107-1.038.111-1.5,1.045-2.234,2.135-4.448,3.2-6.675.85-1.789.772-1.968-1.137-2.281-5.38-.874-10.765-1.725-16.145-2.584-.61-.1-1.223-.194-1.828-.313-.537-.1-1.284-.083-1.311-.791-.031-.775.784-.694,1.28-.78,3.768-.63,7.543-1.218,11.316-1.819,1.441-.227,2.887-.45,4.328-.687.492-.081,1.144-.029,1.353-.524.268-.635-.408-.973-.762-1.364q-7.614-8.435-15.254-16.843c-1.394-1.54-2.813-3.056-4.181-4.617C48.7,63.339,48.04,62.953,48.194,62.057Z" transform="translate(-40.898 -33.889)" fill="#edebeb"/>
            </g>
            <text id="weedhurry" transform="translate(0 109.362)" fill="#212121" font-size="30" font-family="Poppins-Bold, Poppins" font-weight="700"><tspan x="0" y="0">weedhurry</tspan></text>
          </g>
        </g>
      </g>
    </g>
  </g>
</svg>
